<svg version="1.0" xmlns="http://www.w3.org/2000/svg" width="1365.333" height="1365.333" viewBox="0 0 1024 1024"><path d="M427 127.6c-20.4 5.3-36.2 22.2-40 42.8-1.8 9.6-.7 21.2 2.8 29.5 1.6 3.6 6.3 12.7 10.7 20.1 4.3 7.4 8.9 15.5 10.3 18 1.4 2.5 5.5 9.7 9.2 16 3.7 6.3 11.5 19.9 17.4 30.3l10.7 18.7-7.9 13.8c-4.4 7.5-9 15.6-10.3 17.8-6.5 11.3-27.2 47.1-28 48.4-.5.8-6.5 11.2-13.3 23-6.7 11.8-14.5 25.4-17.3 30.1-2.7 4.8-5.3 9.3-5.7 10-.3.8-1.6 3-2.7 4.9-1.2 1.9-9.1 15.6-17.6 30.4-8.6 14.8-16.3 28.2-17.2 29.8-.9 1.5-7.5 13-14.7 25.5-7.2 12.6-18.8 32.6-25.8 44.7-6.9 12-12.6 22.1-12.6 22.5-.1.3-.9 1.6-1.9 2.8l-1.9 2.3h-72.4c-79.3.1-77-.1-89.7 6.2-8.1 4-18.5 14.2-22.4 21.8-6.9 13.7-8.3 29.3-3.8 43 5.4 17.1 20.4 30.8 38.6 35.5 5.2 1.3 35.3 1.5 255 1.5h249l1.9-4.3c7.9-18.1 7.9-39.1-.1-58.7-8.8-21.7-26.8-38-48-43.7-1.6-.4-43.2-.9-92.5-1-49.4-.2-89.8-.5-89.8-.8 0-.3 28.7-50.5 39.5-69 4.9-8.4 36.3-62.6 40.7-70.5 1.1-1.9 7.1-12.3 13.3-23 6.2-10.7 12.2-21.1 13.2-23 1.1-1.9 6.9-11.8 12.8-22s11.9-20.5 13.3-23c2.4-4.3 18.4-32 37.7-65.5l11.3-19.5c1.1-1.9 7-12.3 13.2-23 6.2-10.7 16.5-28.5 22.9-39.5 14.5-25.1 17.8-31.7 19.1-38.2 5.3-25.1-6.2-49.4-28.5-60.3-9-4.4-15.8-5.9-26-5.6-10.5.3-18.6 2.8-27.1 8.2-9.6 6.1-14.1 12-28.3 36.4-7.4 12.7-13.7 22.8-14.2 22.3-.7-.7-3.1-4.8-11-19-9.4-16.8-11.7-20.5-15.4-25.8-6.7-9.4-15.4-15.8-26.5-19.6-8.2-2.7-22.2-3.4-30-1.3z"/><path d="M584.1 339.2c-6.7 6.9-13.8 17.1-19.4 28.3-4.6 9.1-11.1 27.3-12.1 34-.4 2.1-.8 4-1 4.4-.4.6-1.6 8.2-2.1 14.1-.5 5-.6 25.8-.1 30.5 2 18.7 6.8 35.6 15.1 53 2.8 6 11.9 22.5 20 36.5s18.4 31.8 22.8 39.5c11.1 19.4 10.8 19 16.7 29 2.9 4.9 6.1 10.5 7.1 12.2 1 1.8 6.9 11.9 13 22.5s18.1 31.4 26.7 46.3c30.5 53.1 55.2 96 56.2 97.5.5.8 2.5 4.2 4.3 7.5 1.9 3.3 6.7 11.6 10.7 18.5 4 6.9 7.8 13.4 8.4 14.5 1.2 2.1 13.4 23.3 15.1 26.3.6.9 2.5 4.3 4.3 7.4 6.7 11.6 16.9 20.6 28.4 25 7.3 2.8 8.2 2.9 17.4 3.4 20.2.9 38.6-9.1 48.7-26.6 5.3-9.2 7.2-16.7 7-28.6-.1-11.5-2.6-18.4-14-38.1-5.3-9.2-13.6-23.8-18.5-32.3-4.8-8.5-9.2-16.2-9.8-17-2.4-3.9-16.4-28.6-16.5-29 0-.3 18.7-.6 41.5-.6 28.9-.1 43.3-.5 47.5-1.4 9.5-2 19.1-7.4 26.5-14.9 5.5-5.5 12.3-15.7 13.1-19.6.1-.6.3-1.5.5-2 1.5-4.4 2.3-11.3 2-18.5-1-24.6-17.7-44.8-42-50.5-4.8-1.1-20.4-1.4-79-1.5-56.5 0-73.2-.3-73.8-1.3-1.5-2.2-5.5-9.1-14.2-24.2-4.7-8.3-9-15.7-9.5-16.5-.5-.8-4.3-7.4-8.4-14.5-4.1-7.2-14.1-24.5-22.2-38.5s-15.7-27.3-16.9-29.5c-1.3-2.2-7-12.1-12.8-22-5.7-9.9-11.6-20-13-22.5-1.4-2.5-7.3-12.8-13.3-23-5.9-10.2-12.1-21-13.9-24.1-9.8-17.6-34.2-58.9-34.7-58.9-.3 0-2.9 2.4-5.8 5.2zM216.7 737.2c-6.6.9-18.4 3.6-20.8 4.9-1.2.6-9.1 13.7-29.4 49.1-15.2 26.4-16.5 29.7-17 41.8-.4 8.5 1 17.8 3.6 23.5 2.7 6.3 10 16.2 14.5 20 11.2 9.4 20.6 12.8 35.4 12.9 9.2.1 11.5-.3 18.3-2.8 12.3-4.5 20.9-11.7 28.8-24.1 2.4-3.7 11.8-20 17.4-29.9 1.3-2.3 6.8-11.9 12.4-21.5 5.6-9.5 10.1-17.5 10.1-17.6 0-.2 2.7-4.9 5.9-10.4l6-10.1-2.7-3.2c-12.1-14.7-29.9-26.2-47.7-30.8-8.8-2.3-25.1-3.2-34.8-1.8z"/></svg>